<?xml version="1.0" encoding="UTF-8" standalone="no"?>
<!-- Created with Inkscape (http://www.inkscape.org/) -->

<svg
   xmlns:dc="http://purl.org/dc/elements/1.1/"
   xmlns:cc="http://creativecommons.org/ns#"
   xmlns:rdf="http://www.w3.org/1999/02/22-rdf-syntax-ns#"
   xmlns:svg="http://www.w3.org/2000/svg"
   xmlns="http://www.w3.org/2000/svg"
   xmlns:xlink="http://www.w3.org/1999/xlink"
   xmlns:sodipodi="http://sodipodi.sourceforge.net/DTD/sodipodi-0.dtd"
   xmlns:inkscape="http://www.inkscape.org/namespaces/inkscape"
   width="198.40073mm"
   height="198.40073mm"
   viewBox="0 0 198.40073 198.40073"
   version="1.1"
   id="svg8"
   inkscape:version="0.92.3 (2405546, 2018-03-11)"
   sodipodi:docname="esmer-logo.svg"
   inkscape:export-filename="C:\Users\pablo\Pictures\artbook\lab\esmer-games\logo.png"
   inkscape:export-xdpi="96"
   inkscape:export-ydpi="96">
  <title
     id="title989">Festimon Logo 1</title>
  <defs
     id="defs2">
    <linearGradient
       inkscape:collect="always"
       id="linearGradient821">
      <stop
         style="stop-color:#700000;stop-opacity:1"
         offset="0"
         id="stop817" />
      <stop
         style="stop-color:#ff0808;stop-opacity:1"
         offset="1"
         id="stop819" />
    </linearGradient>
    <linearGradient
       inkscape:collect="always"
       xlink:href="#linearGradient821"
       id="linearGradient823"
       x1="157.44548"
       y1="181.71725"
       x2="55.733086"
       y2="10.116068"
       gradientUnits="userSpaceOnUse" />
    <linearGradient
       gradientTransform="matrix(0.89331356,0,0,0.89331356,10.847411,10.716907)"
       inkscape:collect="always"
       xlink:href="#linearGradient821"
       id="linearGradient823-7"
       x1="157.44548"
       y1="181.71725"
       x2="55.733086"
       y2="10.116068"
       gradientUnits="userSpaceOnUse" />
    <linearGradient
       gradientTransform="matrix(0.89331357,0,0,0.89331357,10.847411,10.716904)"
       inkscape:collect="always"
       xlink:href="#linearGradient821"
       id="linearGradient823-7-0"
       x1="157.44548"
       y1="181.71725"
       x2="55.733086"
       y2="10.116068"
       gradientUnits="userSpaceOnUse" />
    <linearGradient
       inkscape:collect="always"
       xlink:href="#linearGradient821"
       id="linearGradient888"
       x1="142.80084"
       y1="168.52402"
       x2="62.93885"
       y2="32.216557"
       gradientUnits="userSpaceOnUse" />
    <linearGradient
       gradientTransform="matrix(-1,0,0,1,209.24015,45.562625)"
       inkscape:collect="always"
       xlink:href="#linearGradient821"
       id="linearGradient898-6-3"
       x1="121.28108"
       y1="106.95468"
       x2="149.26053"
       y2="79.129478"
       gradientUnits="userSpaceOnUse" />
    <linearGradient
       gradientTransform="matrix(-1,0,0,1,210.71963,23.600668)"
       inkscape:collect="always"
       xlink:href="#linearGradient821"
       id="linearGradient898-5-2"
       x1="121.28108"
       y1="106.95468"
       x2="160.98055"
       y2="83.969505"
       gradientUnits="userSpaceOnUse" />
    <linearGradient
       gradientTransform="matrix(-1,0,0,1,210.74645,1.4758937)"
       inkscape:collect="always"
       xlink:href="#linearGradient821"
       id="linearGradient898-9"
       x1="124.22105"
       y1="121.6545"
       x2="146.54799"
       y2="85.038582"
       gradientUnits="userSpaceOnUse" />
    <linearGradient
       gradientTransform="translate(-3.9957008,26.508137)"
       inkscape:collect="always"
       xlink:href="#linearGradient821"
       id="linearGradient898-9-4"
       x1="172.32956"
       y1="146.51057"
       x2="64.763512"
       y2="21.962971"
       gradientUnits="userSpaceOnUse" />
    <linearGradient
       gradientTransform="translate(-0.03652185,3.0748539)"
       inkscape:collect="always"
       xlink:href="#linearGradient821"
       id="linearGradient898-6-3-1"
       x1="171.26048"
       y1="160.67586"
       x2="68.77256"
       y2="41.206379"
       gradientUnits="userSpaceOnUse" />
    <linearGradient
       gradientTransform="translate(-11.744215,49.376938)"
       inkscape:collect="always"
       xlink:href="#linearGradient821"
       id="linearGradient898-5-2-5"
       x1="169.12233"
       y1="129.13805"
       x2="74.652489"
       y2="-3.6949034"
       gradientUnits="userSpaceOnUse" />
  </defs>
  <sodipodi:namedview
     id="base"
     pagecolor="#ffffff"
     bordercolor="#666666"
     borderopacity="1.0"
     inkscape:pageopacity="0.0"
     inkscape:pageshadow="2"
     inkscape:zoom="0.98994949"
     inkscape:cx="340.86978"
     inkscape:cy="416.09606"
     inkscape:document-units="mm"
     inkscape:current-layer="layer1"
     showgrid="false"
     fit-margin-top="0"
     fit-margin-left="0"
     fit-margin-right="0"
     fit-margin-bottom="0"
     inkscape:window-width="1920"
     inkscape:window-height="1017"
     inkscape:window-x="1432"
     inkscape:window-y="-8"
     inkscape:window-maximized="1" />
  <metadata
     id="metadata5">
    <rdf:RDF>
      <cc:Work
         rdf:about="">
        <dc:format>image/svg+xml</dc:format>
        <dc:type
           rdf:resource="http://purl.org/dc/dcmitype/StillImage" />
        <dc:title>Festimon Logo 1</dc:title>
        <dc:date>01/10/2018</dc:date>
        <dc:creator>
          <cc:Agent>
            <dc:title>Pablo Blanco Celdrán</dc:title>
          </cc:Agent>
        </dc:creator>
        <cc:license
           rdf:resource="http://creativecommons.org/licenses/by-nc-sa/4.0/" />
      </cc:Work>
      <cc:License
         rdf:about="http://creativecommons.org/licenses/by-nc-sa/4.0/">
        <cc:permits
           rdf:resource="http://creativecommons.org/ns#Reproduction" />
        <cc:permits
           rdf:resource="http://creativecommons.org/ns#Distribution" />
        <cc:requires
           rdf:resource="http://creativecommons.org/ns#Notice" />
        <cc:requires
           rdf:resource="http://creativecommons.org/ns#Attribution" />
        <cc:prohibits
           rdf:resource="http://creativecommons.org/ns#CommercialUse" />
        <cc:permits
           rdf:resource="http://creativecommons.org/ns#DerivativeWorks" />
        <cc:requires
           rdf:resource="http://creativecommons.org/ns#ShareAlike" />
      </cc:License>
    </rdf:RDF>
  </metadata>
  <g
     inkscape:label="Capa 1"
     inkscape:groupmode="layer"
     id="layer1"
     transform="translate(-2.4752301,-1.2520169)">
    <path
       style="opacity:1;fill:none;fill-opacity:1;stroke:url(#linearGradient823);stroke-width:3.36500001;stroke-linecap:round;stroke-miterlimit:4;stroke-dasharray:none;stroke-opacity:1"
       d="m 182.53893,45.929216 c 3.50493,5.187984 6.52375,10.731373 8.99108,16.564811 2.46734,5.833438 4.3832,11.956925 5.68222,18.305102 1.29903,6.348178 1.98122,12.921047 1.98122,19.653251 0,53.85763 -43.66023,97.51786 -97.51786,97.51786 -53.857627,0 -97.5178599,-43.66023 -97.5178599,-97.51786 C 4.1577284,46.594752 47.817962,2.9345169 101.67559,2.9345169 c 6.7322,0 13.30507,0.6821912 19.65325,1.9812164 6.34818,1.2990252 12.47166,3.2148845 18.3051,5.6822207 5.83344,2.467336 11.37683,5.486149 16.56481,8.991082 5.18799,3.504933 10.02057,7.495986 14.43238,11.907802"
       id="path815"
       inkscape:connector-curvature="0"
       sodipodi:nodetypes="csssssssssc" />
    <path
       style="opacity:1;fill:none;fill-opacity:1;stroke:url(#linearGradient823-7);stroke-width:3.60599995;stroke-linecap:round;stroke-miterlimit:4;stroke-dasharray:none;stroke-opacity:1"
       d="m 161.26086,114.3504 c 0,0 25.76261,-3.53138 25.75891,3.6585 -0.0144,27.94061 -29.31886,53.16198 -51.43546,62.71166 -10.42218,4.40821 -21.88078,6.84585 -33.90871,6.84585"
       id="path815-5"
       inkscape:connector-curvature="0"
       sodipodi:nodetypes="cscc" />
    <path
       style="opacity:1;fill:none;fill-opacity:1;stroke:url(#linearGradient823-7-0);stroke-width:3.60599995;stroke-linecap:round;stroke-miterlimit:4;stroke-dasharray:none;stroke-opacity:1"
       d="m 154.84639,114.88494 v 0"
       id="path815-5-9"
       inkscape:connector-curvature="0"
       sodipodi:nodetypes="cc" />
    <path
       style="fill:none;stroke:url(#linearGradient888);stroke-width:3.365;stroke-linecap:round;stroke-linejoin:round;stroke-miterlimit:4;stroke-dasharray:none;stroke-opacity:1"
       d="m 95.147953,66.880937 c 14.007547,-5.833103 29.102087,1.525861 42.763117,-5.078121 2.2715,-1.098082 5.61267,-5.078121 5.61267,-5.078121 0,0 -21.32368,-13.869101 -39.82316,-14.699824 -18.499483,-0.830723 -66.282846,17.907058 -66.282846,17.907058 0,0 42.248192,-30.798519 66.282846,-31.537804 24.03465,-0.739285 65.7483,26.459683 65.7483,26.459683 0,0 -16.33878,13.194904 -25.92514,17.105248 -13.44401,5.483906 -41.73015,-3.459655 -46.772173,10.156242 -2.092106,5.64969 13.134113,6.116135 15.234363,12.2944 8.93677,26.289132 -19.510675,80.982662 -19.510675,80.982662 0,0 12.058905,-47.94764 5.345392,-70.55915 -2.713352,-9.138732 -19.109751,-13.414629 -17.372519,-22.717911 0.503779,-2.697854 2.91194,-5.978919 5.827554,-8.849283"
       id="path880"
       inkscape:connector-curvature="0"
       sodipodi:nodetypes="csczczcssacasc" />
    <path
       style="fill:none;stroke:url(#linearGradient898-9);stroke-width:2.66499996;stroke-linecap:round;stroke-linejoin:round;stroke-miterlimit:4;stroke-dasharray:none;stroke-opacity:1"
       d="m 85.12977,103.90367 c 4.3532,2.9696 2.6727,5.87993 2.6727,5.87993 0,0 -0.55792,3.88757 -5.87993,4.27631 -5.32201,0.38874 -21.9161,-11.49258 -21.9161,-11.49258 0,0 5.192533,-0.40831 10.929215,-0.44543"
       id="path890-0"
       inkscape:connector-curvature="0"
       sodipodi:nodetypes="cczcc" />
    <path
       style="fill:none;stroke:url(#linearGradient898-5-2);stroke-width:2.66499996;stroke-linecap:round;stroke-linejoin:round;stroke-miterlimit:4;stroke-dasharray:none;stroke-opacity:1"
       d="m 81.895722,136.18468 c -5.32201,0.38874 -21.9161,-11.49258 -21.9161,-11.49258 0,0 20.77013,-1.63326 25.12333,1.33634 4.3532,2.9696 2.6727,5.87993 2.6727,5.87993"
       id="path890-9-2"
       inkscape:connector-curvature="0"
       sodipodi:nodetypes="cczc" />
    <path
       style="fill:none;stroke:url(#linearGradient898-6-3);stroke-width:2.66499996;stroke-linecap:round;stroke-linejoin:round;stroke-miterlimit:4;stroke-dasharray:none;stroke-opacity:1"
       d="m 58.500152,146.65406 c 0,0 20.77013,-1.63325 25.12333,1.33634 4.3532,2.9696 2.6727,5.87993 2.6727,5.87993 0,0 -0.55792,3.88757 -5.87993,4.27631 -2.661005,0.19437 -8.14003,-2.67877 -12.953804,-5.60051"
       id="path890-4-7"
       inkscape:connector-curvature="0"
       sodipodi:nodetypes="czcsc" />
    <path
       style="fill:none;stroke:url(#linearGradient898-9-4);stroke-width:2.66499996;stroke-linecap:round;stroke-linejoin:round;stroke-miterlimit:4;stroke-dasharray:none;stroke-opacity:1"
       d="m 121.62097,128.93592 c -4.3532,2.9696 -2.6727,5.87993 -2.6727,5.87993 0,0 0.55792,3.88757 5.87993,4.27631 5.32201,0.38874 21.9161,-11.49258 21.9161,-11.49258 0,0 -5.19253,-0.40831 -10.92921,-0.44543"
       id="path890-0-9"
       inkscape:connector-curvature="0"
       sodipodi:nodetypes="cczcc" />
    <path
       style="fill:none;stroke:url(#linearGradient898-6-3-1);stroke-width:2.66499996;stroke-linecap:round;stroke-linejoin:round;stroke-miterlimit:4;stroke-dasharray:none;stroke-opacity:1"
       d="m 150.70348,104.16629 c 0,0 -20.77013,-1.63325 -25.12333,1.33634 -4.3532,2.9696 -2.6727,5.87993 -2.6727,5.87993 0,0 0.55792,3.88757 5.87993,4.27631 2.661,0.19437 8.14003,-2.67877 12.9538,-5.60051"
       id="path890-4-7-2"
       inkscape:connector-curvature="0"
       sodipodi:nodetypes="czcsc" />
    <path
       style="fill:none;stroke:url(#linearGradient898-5-2-5);stroke-width:2.66499996;stroke-linecap:round;stroke-linejoin:round;stroke-miterlimit:4;stroke-dasharray:none;stroke-opacity:1"
       d="m 117.07969,161.96095 c 5.32201,0.38874 21.9161,-11.49258 21.9161,-11.49258 0,0 -20.77013,-1.63326 -25.12333,1.33634 -4.3532,2.9696 -2.6727,5.87993 -2.6727,5.87993"
       id="path890-9-2-2"
       inkscape:connector-curvature="0"
       sodipodi:nodetypes="cczc" />
  </g>
</svg>
